<svg width="24" height="24" viewBox="0 0 24 24" fill="none" xmlns="http://www.w3.org/2000/svg">
<path fill-rule="evenodd" clip-rule="evenodd" d="M10 2H3C2.44772 2 2 2.44772 2 3V10C2 10.5523 2.44772 11 3 11H10C10.5523 11 11 10.5523 11 10V3C11 2.44772 10.5523 2 10 2ZM4 9V4H9V9H4ZM21 13C21.5523 13 22 13.4477 22 14V21C22 21.5523 21.5523 22 21 22H14C13.4477 22 13 21.5523 13 21V14C13 13.4477 13.4477 13 14 13H21ZM17.5 11C15.0147 11 13 8.98528 13 6.5C13 4.01472 15.0147 2 17.5 2C19.9853 2 22 4.01472 22 6.5C22 8.98528 19.9853 11 17.5 11ZM20 6.5C20 7.88071 18.8807 9 17.5 9C16.1193 9 15 7.88071 15 6.5C15 5.11929 16.1193 4 17.5 4C18.8807 4 20 5.11929 20 6.5ZM6.5 22C4.01472 22 2 19.9853 2 17.5C2 15.0147 4.01472 13 6.5 13C8.98528 13 11 15.0147 11 17.5C11 19.9853 8.98528 22 6.5 22ZM9 17.5C9 18.8807 7.88071 20 6.5 20C5.11929 20 4 18.8807 4 17.5C4 16.1193 5.11929 15 6.5 15C7.88071 15 9 16.1193 9 17.5ZM15 20V15H20V20H15Z" fill="#494C5F"/>
</svg>
