<svg width="68" height="68" viewBox="0 0 68 68" fill="none" xmlns="http://www.w3.org/2000/svg">
<rect x="0.5" y="0.5" width="67" height="67" rx="7.5" fill="#E9EAF3"/>
<path d="M40.5 11H26.5C25.4 11 24.5 11.9 24.5 13V27C24.5 28.1 25.4 29 26.5 29H40.5C41.6 29 42.5 28.1 42.5 27V13C42.5 11.9 41.6 11 40.5 11ZM29.5 25C28.95 25 28.5 24.55 28.5 24V19C28.5 18.45 28.95 18 29.5 18C30.05 18 30.5 18.45 30.5 19V24C30.5 24.55 30.05 25 29.5 25ZM33.5 25C32.95 25 32.5 24.55 32.5 24V16C32.5 15.45 32.95 15 33.5 15C34.05 15 34.5 15.45 34.5 16V24C34.5 24.55 34.05 25 33.5 25ZM37.5 25C36.95 25 36.5 24.55 36.5 24V22C36.5 21.45 36.95 21 37.5 21C38.05 21 38.5 21.45 38.5 22V24C38.5 24.55 38.05 25 37.5 25Z" fill="#6675FF"/>
<path d="M15.457 46.5205L13.1035 53H12.1416L14.8516 45.8906H15.4717L15.457 46.5205ZM17.4297 53L15.0713 46.5205L15.0566 45.8906H15.6768L18.3965 53H17.4297ZM17.3076 50.3682V51.1396H13.3135V50.3682H17.3076ZM20.3652 48.8447V53H19.4619V47.7168H20.3164L20.3652 48.8447ZM20.1504 50.1582L19.7744 50.1436C19.7777 49.7822 19.8314 49.4486 19.9355 49.1426C20.0397 48.8333 20.1862 48.5648 20.375 48.3369C20.5638 48.109 20.7884 47.9333 21.0488 47.8096C21.3125 47.6826 21.6038 47.6191 21.9229 47.6191C22.1833 47.6191 22.4176 47.6549 22.626 47.7266C22.8343 47.7949 23.0117 47.9056 23.1582 48.0586C23.3079 48.2116 23.4219 48.4102 23.5 48.6543C23.5781 48.8952 23.6172 49.1898 23.6172 49.5381V53H22.709V49.5283C22.709 49.2516 22.6683 49.0303 22.5869 48.8643C22.5055 48.695 22.3867 48.5729 22.2305 48.498C22.0742 48.4199 21.8822 48.3809 21.6543 48.3809C21.4297 48.3809 21.2246 48.4281 21.0391 48.5225C20.8568 48.6169 20.6989 48.7471 20.5654 48.9131C20.4352 49.0791 20.3327 49.2695 20.2578 49.4844C20.1862 49.696 20.1504 49.9206 20.1504 50.1582ZM28.3545 52.0967V49.377C28.3545 49.1686 28.3122 48.988 28.2275 48.835C28.1462 48.6787 28.0225 48.5583 27.8564 48.4736C27.6904 48.389 27.4854 48.3467 27.2412 48.3467C27.0133 48.3467 26.8132 48.3857 26.6406 48.4639C26.4714 48.542 26.3379 48.6445 26.2402 48.7715C26.1458 48.8984 26.0986 49.0352 26.0986 49.1816H25.1953C25.1953 48.9928 25.2441 48.8057 25.3418 48.6201C25.4395 48.4346 25.5794 48.2669 25.7617 48.1172C25.9473 47.9642 26.1686 47.8438 26.4258 47.7559C26.6862 47.6647 26.9759 47.6191 27.2949 47.6191C27.679 47.6191 28.0176 47.6842 28.3105 47.8145C28.6068 47.9447 28.8379 48.1416 29.0039 48.4053C29.1732 48.6657 29.2578 48.9928 29.2578 49.3867V51.8477C29.2578 52.0234 29.2725 52.2106 29.3018 52.4092C29.3343 52.6077 29.3815 52.7786 29.4434 52.9219V53H28.501C28.4554 52.8958 28.4196 52.7575 28.3936 52.585C28.3675 52.4092 28.3545 52.2464 28.3545 52.0967ZM28.5107 49.7969L28.5205 50.4316H27.6074C27.3503 50.4316 27.1208 50.4528 26.9189 50.4951C26.7171 50.5342 26.5479 50.5944 26.4111 50.6758C26.2744 50.7572 26.1702 50.8597 26.0986 50.9834C26.027 51.1038 25.9912 51.2454 25.9912 51.4082C25.9912 51.5742 26.0286 51.7256 26.1035 51.8623C26.1784 51.999 26.2907 52.1081 26.4404 52.1895C26.5934 52.2676 26.7806 52.3066 27.002 52.3066C27.2786 52.3066 27.5228 52.248 27.7344 52.1309C27.946 52.0137 28.1136 51.8704 28.2373 51.7012C28.3643 51.5319 28.4326 51.3675 28.4424 51.208L28.8281 51.6426C28.8053 51.7793 28.7435 51.9307 28.6426 52.0967C28.5417 52.2627 28.4066 52.4222 28.2373 52.5752C28.0713 52.7249 27.8727 52.8503 27.6416 52.9512C27.4137 53.0488 27.1566 53.0977 26.8701 53.0977C26.512 53.0977 26.1979 53.0277 25.9277 52.8877C25.6608 52.7477 25.4525 52.5605 25.3027 52.3262C25.1562 52.0885 25.083 51.8232 25.083 51.5303C25.083 51.2471 25.1383 50.998 25.249 50.7832C25.3597 50.5651 25.5192 50.3844 25.7275 50.2412C25.9359 50.0947 26.1865 49.984 26.4795 49.9092C26.7725 49.8343 27.0996 49.7969 27.4609 49.7969H28.5107ZM31.9102 45.5V53H31.002V45.5H31.9102ZM35.0947 52.4531L36.5645 47.7168H37.5312L35.4121 53.8154C35.3633 53.9456 35.2982 54.0856 35.2168 54.2354C35.1387 54.3883 35.0378 54.5332 34.9141 54.6699C34.7904 54.8066 34.6406 54.9173 34.4648 55.002C34.2923 55.0898 34.0856 55.1338 33.8447 55.1338C33.7731 55.1338 33.682 55.124 33.5713 55.1045C33.4606 55.085 33.3825 55.0687 33.3369 55.0557L33.332 54.3232C33.3581 54.3265 33.3988 54.3298 33.4541 54.333C33.5127 54.3395 33.5534 54.3428 33.5762 54.3428C33.7812 54.3428 33.9554 54.3151 34.0986 54.2598C34.2419 54.2077 34.3623 54.1182 34.46 53.9912C34.5609 53.8675 34.6471 53.6966 34.7188 53.4785L35.0947 52.4531ZM34.0156 47.7168L35.3877 51.8184L35.6221 52.7705L34.9727 53.1025L33.0293 47.7168H34.0156ZM40.8086 47.7168V48.4102H37.9521V47.7168H40.8086ZM38.9189 46.4326H39.8223V51.6914C39.8223 51.8704 39.8499 52.0055 39.9053 52.0967C39.9606 52.1878 40.0322 52.248 40.1201 52.2773C40.208 52.3066 40.3024 52.3213 40.4033 52.3213C40.4782 52.3213 40.5563 52.3148 40.6377 52.3018C40.7223 52.2855 40.7858 52.2725 40.8281 52.2627L40.833 53C40.7614 53.0228 40.667 53.0439 40.5498 53.0635C40.4359 53.0863 40.2975 53.0977 40.1348 53.0977C39.9134 53.0977 39.71 53.0537 39.5244 52.9658C39.3389 52.8779 39.1908 52.7314 39.0801 52.5264C38.9727 52.318 38.9189 52.0381 38.9189 51.6865V46.4326ZM43.0996 47.7168V53H42.1914V47.7168H43.0996ZM42.123 46.3154C42.123 46.1689 42.167 46.0452 42.2549 45.9443C42.346 45.8434 42.4795 45.793 42.6553 45.793C42.8278 45.793 42.9596 45.8434 43.0508 45.9443C43.1452 46.0452 43.1924 46.1689 43.1924 46.3154C43.1924 46.4554 43.1452 46.5758 43.0508 46.6768C42.9596 46.7744 42.8278 46.8232 42.6553 46.8232C42.4795 46.8232 42.346 46.7744 42.2549 46.6768C42.167 46.5758 42.123 46.4554 42.123 46.3154ZM46.9141 52.3555C47.1289 52.3555 47.3275 52.3115 47.5098 52.2236C47.6921 52.1357 47.8418 52.0153 47.959 51.8623C48.0762 51.7061 48.1429 51.5286 48.1592 51.3301H49.0186C49.0023 51.6426 48.8965 51.9339 48.7012 52.2041C48.5091 52.471 48.2568 52.6875 47.9443 52.8535C47.6318 53.0163 47.2884 53.0977 46.9141 53.0977C46.5169 53.0977 46.1702 53.0277 45.874 52.8877C45.5811 52.7477 45.3369 52.5557 45.1416 52.3115C44.9495 52.0674 44.8047 51.7874 44.707 51.4717C44.6126 51.1527 44.5654 50.8158 44.5654 50.4609V50.2559C44.5654 49.901 44.6126 49.5658 44.707 49.25C44.8047 48.931 44.9495 48.6494 45.1416 48.4053C45.3369 48.1611 45.5811 47.9691 45.874 47.8291C46.1702 47.6891 46.5169 47.6191 46.9141 47.6191C47.3275 47.6191 47.6888 47.7038 47.998 47.873C48.3073 48.0391 48.5498 48.2669 48.7256 48.5566C48.9046 48.8431 49.0023 49.1686 49.0186 49.5332H48.1592C48.1429 49.3151 48.0811 49.1182 47.9736 48.9424C47.8695 48.7666 47.7262 48.6266 47.5439 48.5225C47.3649 48.415 47.1549 48.3613 46.9141 48.3613C46.6374 48.3613 46.4046 48.4167 46.2158 48.5273C46.0303 48.6348 45.8822 48.7812 45.7715 48.9668C45.6641 49.1491 45.5859 49.3525 45.5371 49.5771C45.4915 49.7985 45.4688 50.0247 45.4688 50.2559V50.4609C45.4688 50.6921 45.4915 50.9199 45.5371 51.1445C45.5827 51.3691 45.6592 51.5726 45.7666 51.7549C45.8773 51.9372 46.0254 52.0837 46.2109 52.1943C46.3997 52.3018 46.6341 52.3555 46.9141 52.3555ZM53.3604 51.5986C53.3604 51.4684 53.3311 51.348 53.2725 51.2373C53.2171 51.1234 53.1016 51.0208 52.9258 50.9297C52.7533 50.8353 52.4928 50.7539 52.1445 50.6855C51.8516 50.6237 51.5863 50.5505 51.3486 50.4658C51.1143 50.3812 50.9141 50.2786 50.748 50.1582C50.5853 50.0378 50.46 49.8962 50.3721 49.7334C50.2842 49.5706 50.2402 49.3802 50.2402 49.1621C50.2402 48.9538 50.2858 48.7568 50.377 48.5713C50.4714 48.3857 50.6032 48.2214 50.7725 48.0781C50.945 47.9349 51.1517 47.8226 51.3926 47.7412C51.6335 47.6598 51.902 47.6191 52.1982 47.6191C52.6214 47.6191 52.9827 47.694 53.2822 47.8438C53.5817 47.9935 53.8112 48.1937 53.9707 48.4443C54.1302 48.6917 54.21 48.9668 54.21 49.2695H53.3066C53.3066 49.123 53.2627 48.9814 53.1748 48.8447C53.0902 48.7048 52.9648 48.5892 52.7988 48.498C52.6361 48.4069 52.4359 48.3613 52.1982 48.3613C51.9476 48.3613 51.7441 48.4004 51.5879 48.4785C51.4349 48.5534 51.3226 48.6494 51.251 48.7666C51.1826 48.8838 51.1484 49.0075 51.1484 49.1377C51.1484 49.2354 51.1647 49.3232 51.1973 49.4014C51.2331 49.4762 51.2949 49.5462 51.3828 49.6113C51.4707 49.6732 51.5944 49.7318 51.7539 49.7871C51.9134 49.8424 52.1169 49.8978 52.3643 49.9531C52.7972 50.0508 53.1536 50.168 53.4336 50.3047C53.7135 50.4414 53.9219 50.609 54.0586 50.8076C54.1953 51.0062 54.2637 51.2471 54.2637 51.5303C54.2637 51.7614 54.2148 51.973 54.1172 52.165C54.0228 52.3571 53.8844 52.5231 53.7021 52.6631C53.5231 52.7998 53.3083 52.9072 53.0576 52.9854C52.8102 53.0602 52.5319 53.0977 52.2227 53.0977C51.7572 53.0977 51.3633 53.0146 51.041 52.8486C50.7188 52.6826 50.4746 52.4678 50.3086 52.2041C50.1426 51.9404 50.0596 51.6621 50.0596 51.3691H50.9678C50.9808 51.6165 51.0524 51.8135 51.1826 51.96C51.3128 52.1032 51.4723 52.2057 51.6611 52.2676C51.8499 52.3262 52.0371 52.3555 52.2227 52.3555C52.4701 52.3555 52.6768 52.3229 52.8428 52.2578C53.012 52.1927 53.1406 52.1032 53.2285 51.9893C53.3164 51.8753 53.3604 51.7451 53.3604 51.5986Z" fill="#2E303D"/>
<rect x="0.5" y="0.5" width="67" height="67" rx="7.5" stroke="#6675FF"/>
</svg>
