<svg width="35" height="35" viewBox="0 0 35 35" fill="none" xmlns="http://www.w3.org/2000/svg">
<rect width="35" height="35" rx="10.7692" fill="#6675FF"/>
<path d="M18.986 20.0127V13.0469H20.695V20.0127C20.695 20.6735 20.5537 21.2363 20.2712 21.7012C19.9886 22.166 19.6035 22.5215 19.1159 22.7676C18.6283 23.0137 18.0746 23.1367 17.4548 23.1367C16.8213 23.1367 16.2585 23.0296 15.7663 22.8154C15.2787 22.6012 14.8959 22.2731 14.6179 21.8311C14.3399 21.389 14.2009 20.8285 14.2009 20.1494H15.9235C15.9235 20.5413 15.9851 20.8581 16.1081 21.0996C16.2357 21.3366 16.4134 21.5098 16.6413 21.6191C16.8737 21.724 17.1449 21.7764 17.4548 21.7764C17.751 21.7764 18.013 21.7103 18.2409 21.5781C18.4733 21.4414 18.6556 21.2432 18.7878 20.9834C18.9199 20.7191 18.986 20.3955 18.986 20.0127Z" fill="white"/>
</svg>
