<svg width="22" height="16" viewBox="0 0 22 16" fill="none" xmlns="http://www.w3.org/2000/svg">
<path d="M4.49614 5.13176C4.01662 4.85775 3.40577 5.02434 3.13176 5.50386C2.85775 5.98338 3.02434 6.59423 3.50386 6.86824L9.51158 10.3012C10.4339 10.8283 11.5661 10.8283 12.4884 10.3012L18.4961 6.86824C18.9757 6.59423 19.1423 5.98338 18.8682 5.50386C18.5942 5.02434 17.9834 4.85775 17.5039 5.13176L11.4961 8.56474C11.1887 8.74042 10.8113 8.74042 10.5039 8.56474L4.49614 5.13176Z" fill="#424750"/>
<path fill-rule="evenodd" clip-rule="evenodd" d="M22 3V13C22 14.6569 20.6569 16 19 16H3C1.34315 16 0 14.6569 0 13V3C0 1.34315 1.34315 0 3 0H19C20.6569 0 22 1.34315 22 3ZM20 3C20 2.44772 19.5523 2 19 2H3C2.44772 2 2 2.44772 2 3V13C2 13.5523 2.44772 14 3 14H19C19.5523 14 20 13.5523 20 13V3Z" fill="#424750"/>
</svg>
