<svg width="24" height="24" viewBox="0 0 24 24" fill="none" xmlns="http://www.w3.org/2000/svg">
<path fill-rule="evenodd" clip-rule="evenodd" d="M12.0001 2C14.7615 2 17.0001 4.23858 17.0001 7V8C17.0001 10.7614 14.7615 13 12.0001 13C9.23866 13 7.00008 10.7614 7.00008 8V7C7.00008 4.23858 9.23866 2 12.0001 2ZM21.9958 20.908C21.5718 16.3177 18.0953 14 12.0001 14C5.90489 14 2.42841 16.3177 2.00432 20.908C1.95017 21.4941 2.41147 22 3.00008 22H21.0001C21.5887 22 22.05 21.4941 21.9958 20.908ZM4.18846 20C4.91629 17.3229 7.41937 16 12.0001 16C16.5808 16 19.0839 17.3229 19.8117 20H4.18846ZM9.00012 7C9.00012 5.34315 10.3433 4 12.0001 4C13.657 4 15.0001 5.34315 15.0001 7V8C15.0001 9.65685 13.657 11 12.0001 11C10.3433 11 9.00012 9.65685 9.00012 8V7Z" fill="#494C5F"/>
</svg>
