<svg width="28" height="30" viewBox="0 0 28 30" fill="none" xmlns="http://www.w3.org/2000/svg">
<g filter="url(#filter0_dd_292_758)">
<path fill-rule="evenodd" clip-rule="evenodd" d="M14 2C16.7614 2 19 4.23858 19 7V8C19 10.7614 16.7614 13 14 13C11.2385 13 8.99996 10.7614 8.99996 8V7C8.99996 4.23858 11.2385 2 14 2ZM23.9957 20.908C23.5716 16.3177 20.0952 14 14 14C7.90477 14 4.42829 16.3177 4.0042 20.908C3.95005 21.4941 4.41135 22 4.99996 22H23C23.5886 22 24.0499 21.4941 23.9957 20.908ZM6.18834 20C6.91617 17.3229 9.41925 16 14 16C18.5807 16 21.0838 17.3229 21.8116 20H6.18834ZM11 7C11 5.34315 12.3431 4 14 4C15.6569 4 17 5.34315 17 7V8C17 9.65685 15.6569 11 14 11C12.3431 11 11 9.65685 11 8V7Z" fill="#A1A3A8"/>
</g>
<defs>
<filter id="filter0_dd_292_758" x="-2" y="0" width="32" height="32" filterUnits="userSpaceOnUse" color-interpolation-filters="sRGB">
<feFlood flood-opacity="0" result="BackgroundImageFix"/>
<feColorMatrix in="SourceAlpha" type="matrix" values="0 0 0 0 0 0 0 0 0 0 0 0 0 0 0 0 0 0 127 0" result="hardAlpha"/>
<feOffset dy="4"/>
<feGaussianBlur stdDeviation="2"/>
<feComposite in2="hardAlpha" operator="out"/>
<feColorMatrix type="matrix" values="0 0 0 0 0 0 0 0 0 0 0 0 0 0 0 0 0 0 0.25 0"/>
<feBlend mode="normal" in2="BackgroundImageFix" result="effect1_dropShadow_292_758"/>
<feColorMatrix in="SourceAlpha" type="matrix" values="0 0 0 0 0 0 0 0 0 0 0 0 0 0 0 0 0 0 127 0" result="hardAlpha"/>
<feOffset dy="4"/>
<feGaussianBlur stdDeviation="2"/>
<feComposite in2="hardAlpha" operator="out"/>
<feColorMatrix type="matrix" values="0 0 0 0 0 0 0 0 0 0 0 0 0 0 0 0 0 0 0.25 0"/>
<feBlend mode="normal" in2="effect1_dropShadow_292_758" result="effect2_dropShadow_292_758"/>
<feBlend mode="normal" in="SourceGraphic" in2="effect2_dropShadow_292_758" result="shape"/>
</filter>
</defs>
</svg>
