<svg width="24" height="24" viewBox="0 0 24 24" fill="none" xmlns="http://www.w3.org/2000/svg">
<path fill-rule="evenodd" clip-rule="evenodd" d="M16 15H14V17C14 18.1046 13.1046 19 12 19H6C4.89543 19 4 18.1046 4 17V7C4 5.89543 4.89543 5 6 5H12C13.1046 5 14 5.89543 14 7V9H16V7C16 4.79086 14.2091 3 12 3H6C3.79086 3 2 4.79086 2 7V17C2 19.2091 3.79086 21 6 21H12C14.2091 21 16 19.2091 16 17V15ZM22 11H9.41421L11.7071 8.70711L10.2929 7.29289L6.29289 11.2929C5.90237 11.6834 5.90237 12.3166 6.29289 12.7071L10.2929 16.7071L11.7071 15.2929L9.41421 13H22V11Z" fill="#A1A3A8"/>
</svg>
