<svg width="18" height="18" viewBox="0 0 18 18" fill="none" xmlns="http://www.w3.org/2000/svg">
<path fill-rule="evenodd" clip-rule="evenodd" d="M7.5 15C3.35786 15 0 11.6421 0 7.5C0 3.35786 3.35786 0 7.5 0C11.6421 0 15 3.35786 15 7.5C15 9.20497 14.4311 10.7771 13.4727 12.0368L17.842 16.2829L16.4481 17.7171L12.0613 13.454C10.7975 14.4237 9.21605 15 7.5 15ZM13 7.5C13 10.5376 10.5376 13 7.5 13C4.46243 13 2 10.5376 2 7.5C2 4.46243 4.46243 2 7.5 2C10.5376 2 13 4.46243 13 7.5Z" fill="#424750"/>
</svg>
