<svg width="56" height="56" viewBox="0 0 56 56" fill="none" xmlns="http://www.w3.org/2000/svg">
<g clip-path="url(#clip0_1_3245)">
<path fill-rule="evenodd" clip-rule="evenodd" d="M19.6668 29.8865C20.4591 29.6064 21 28.8545 21 28V25C21 21.134 24.134 18 28 18C31.866 18 35 21.134 35 25V28C35 28.8545 35.5409 29.6064 36.3332 29.8865C36.7328 30.0277 37 30.4055 37 30.8293V35C37 35.5523 36.5523 36 36 36H20C19.4477 36 19 35.5523 19 35V30.8293C19 30.4055 19.2672 30.0277 19.6668 29.8865ZM35 34V31.465C33.7858 30.7639 33 29.4567 33 28V25C33 22.2386 30.7614 20 28 20C25.2386 20 23 22.2386 23 25V28C23 29.4567 22.2142 30.7639 21 31.465V34H35Z" fill="#424750"/>
<path d="M28 39C26.615 39 25.4367 38.1652 25 37H31C30.5633 38.1652 29.385 39 28 39Z" fill="#424750"/>
<rect x="28" y="14" width="22" height="16" rx="8" fill="#FF6666"/>
<path d="M34.6089 21.5044H35.3823C35.6831 21.5044 35.932 21.4525 36.1289 21.3486C36.3294 21.2448 36.478 21.1016 36.5747 20.9189C36.6714 20.7363 36.7197 20.5269 36.7197 20.2905C36.7197 20.0435 36.675 19.8322 36.5854 19.6567C36.4995 19.4777 36.367 19.3398 36.188 19.2432C36.0125 19.1465 35.7887 19.0981 35.5166 19.0981C35.2874 19.0981 35.0798 19.1447 34.8936 19.2378C34.7109 19.3273 34.5659 19.4562 34.4585 19.6245C34.3511 19.7892 34.2974 19.9862 34.2974 20.2153H32.9976C32.9976 19.8 33.1068 19.4312 33.3252 19.1089C33.5436 18.7866 33.8408 18.5342 34.2168 18.3516C34.5964 18.1654 35.0225 18.0723 35.4951 18.0723C36 18.0723 36.4404 18.1564 36.8164 18.3247C37.196 18.4894 37.4914 18.7365 37.7026 19.0659C37.9139 19.3953 38.0195 19.8035 38.0195 20.2905C38.0195 20.5125 37.9676 20.7381 37.8638 20.9673C37.7599 21.1965 37.606 21.4059 37.4019 21.5957C37.1978 21.7819 36.9435 21.9341 36.6392 22.0522C36.3348 22.1668 35.9821 22.2241 35.5811 22.2241H34.6089V21.5044ZM34.6089 22.5142V21.8052H35.5811C36.0394 21.8052 36.4297 21.8589 36.752 21.9663C37.0778 22.0737 37.3428 22.2223 37.5469 22.4121C37.751 22.5983 37.8996 22.8114 37.9927 23.0513C38.0894 23.2912 38.1377 23.5454 38.1377 23.814C38.1377 24.1792 38.0715 24.505 37.939 24.7915C37.8101 25.0744 37.6257 25.3143 37.3857 25.5112C37.1458 25.7082 36.8647 25.8568 36.5425 25.957C36.2238 26.0573 35.8765 26.1074 35.5005 26.1074C35.1639 26.1074 34.8416 26.0609 34.5337 25.9678C34.2257 25.8747 33.95 25.7368 33.7065 25.5542C33.4631 25.368 33.2697 25.137 33.1265 24.8613C32.9868 24.582 32.917 24.2598 32.917 23.8945H34.2114C34.2114 24.1273 34.2651 24.3332 34.3726 24.5122C34.4836 24.6877 34.6375 24.8255 34.8345 24.9258C35.035 25.026 35.2642 25.0762 35.522 25.0762C35.7941 25.0762 36.0286 25.0278 36.2256 24.9312C36.4225 24.8345 36.5729 24.6912 36.6768 24.5015C36.7842 24.3117 36.8379 24.0825 36.8379 23.814C36.8379 23.5096 36.7788 23.2625 36.6606 23.0728C36.5425 22.883 36.3742 22.7433 36.1558 22.6538C35.9373 22.5607 35.6795 22.5142 35.3823 22.5142H34.6089ZM45.083 24.9688V26H39.8408V25.1138L42.3867 22.3369C42.666 22.0218 42.8862 21.7497 43.0474 21.5205C43.2085 21.2913 43.3213 21.0854 43.3857 20.9028C43.4538 20.7166 43.4878 20.5358 43.4878 20.3604C43.4878 20.1133 43.4412 19.8966 43.3481 19.7104C43.2586 19.5207 43.1261 19.3721 42.9507 19.2646C42.7752 19.1536 42.5622 19.0981 42.3115 19.0981C42.0215 19.0981 41.778 19.1608 41.5811 19.2861C41.3841 19.4115 41.2355 19.5851 41.1353 19.8071C41.035 20.0256 40.9849 20.2762 40.9849 20.5591H39.6904C39.6904 20.1043 39.7943 19.689 40.002 19.313C40.2096 18.9334 40.5104 18.6326 40.9043 18.4106C41.2982 18.1851 41.7726 18.0723 42.3276 18.0723C42.8504 18.0723 43.2944 18.16 43.6597 18.3354C44.0249 18.5109 44.3024 18.7598 44.4922 19.082C44.6855 19.4043 44.7822 19.7856 44.7822 20.2261C44.7822 20.4696 44.7428 20.7113 44.6641 20.9512C44.5853 21.1911 44.4725 21.431 44.3257 21.6709C44.1825 21.9072 44.0124 22.1453 43.8154 22.3853C43.6185 22.6216 43.4019 22.8615 43.1655 23.105L41.4736 24.9688H45.083Z" fill="#331414"/>
</g>
<defs>
<clipPath id="clip0_1_3245">
<rect width="56" height="56" rx="28" fill="white"/>
</clipPath>
</defs>
</svg>
