<svg width="24" height="24" viewBox="0 0 24 24" fill="none" xmlns="http://www.w3.org/2000/svg">
<path fill-rule="evenodd" clip-rule="evenodd" d="M16 12C16 14.2091 14.2091 16 12 16C9.79086 16 8 14.2091 8 12C8 9.79086 9.79086 8 12 8C14.2091 8 16 9.79086 16 12ZM10 12C10 13.1046 10.8954 14 12 14C13.1046 14 14 13.1046 14 12C14 10.8954 13.1046 10 12 10C10.8954 10 10 10.8954 10 12ZM19.4644 8.77168C19.4982 8.85006 19.5309 8.92903 19.5623 9.00859L20.2452 9.12443C21.2688 9.29672 22.0141 10.1833 21.9999 11.2084V12.7915C21.9999 13.8251 21.2561 14.7045 20.2355 14.8758L19.5547 14.9893C19.5233 15.0682 19.4905 15.1469 19.4564 15.2255L19.8593 15.7912C20.458 16.6323 20.3605 17.7818 19.6314 18.5109L18.5109 19.6314C18.1129 20.0294 17.5803 20.2514 17.0179 20.2514C16.5754 20.2514 16.1453 20.1143 15.7896 19.8581L15.2282 19.4569C15.1498 19.4907 15.0709 19.5234 14.9913 19.5548L14.8756 20.2367C14.7045 21.256 13.8251 21.9999 12.7915 21.9999H11.2047C10.1711 21.9999 9.29159 21.2561 9.12031 20.2355L9.00668 19.5537C8.94082 19.5277 8.87546 19.5009 8.8106 19.4732L8.23562 19.8825C7.87714 20.1406 7.45082 20.2777 7.00833 20.2777C6.44587 20.2777 5.91333 20.0557 5.51535 19.6577L4.39828 18.5406C3.66261 17.8121 3.56699 16.6603 4.16968 15.8137L4.56201 15.268C4.52771 15.19 4.49468 15.1115 4.46294 15.0326L3.76324 14.9132C2.74384 14.7421 2 13.8627 2 12.8291V11.246C2 10.2124 2.74384 9.33295 3.76243 9.162L4.42541 9.05017C4.45663 8.9697 4.48912 8.88984 4.52287 8.81059L4.11054 8.23125C3.51179 7.39015 3.60935 6.24066 4.33961 5.51041L5.45637 4.39746C5.85157 3.99508 6.39078 3.77104 6.95569 3.77104C7.39822 3.77104 7.82826 3.9082 8.18674 4.16631L8.73606 4.56182C8.81391 4.52759 8.89225 4.49462 8.97106 4.46294L9.09042 3.76324C9.26151 2.74384 10.141 2 11.1746 2H12.7576C13.7912 2 14.6707 2.74384 14.8417 3.76243L14.9536 4.42599C15.0487 4.46312 15.1434 4.50215 15.2374 4.54307L15.7981 4.14375C16.1566 3.88564 16.5829 3.74848 17.0254 3.74848C17.5879 3.74848 18.1204 3.97052 18.5184 4.3685L19.6355 5.48559C20.3711 6.21412 20.4667 7.3659 19.8657 8.21027L19.4644 8.77168ZM19.9999 12.7915L20 11.1946C20.0007 11.1459 19.9669 11.1057 19.9114 11.0964L18.0419 10.7792L17.86 10.192C17.7461 9.82419 17.6003 9.47199 17.4236 9.13782L17.1347 8.59154L18.2375 7.04883C18.2705 7.00248 18.2656 6.94374 18.2247 6.90324L17.1042 5.78272C17.0801 5.75862 17.0557 5.74848 17.0254 5.74848C17.0018 5.74848 16.9844 5.75408 16.9625 5.76981L15.4153 6.8718L14.8703 6.58418C14.5144 6.39634 14.1496 6.24588 13.7796 6.13519L13.1836 5.95689L12.8694 4.09428C12.86 4.03841 12.8146 4 12.7576 4H11.1746C11.1176 4 11.0722 4.03841 11.0624 4.09692L10.7413 5.97904L10.1568 6.16169C9.79738 6.27402 9.44634 6.42204 9.11058 6.60283L8.55982 6.89939L7.01813 5.78938C7.00189 5.77769 6.98105 5.77104 6.95569 5.77104C6.92502 5.77104 6.90067 5.78115 6.87574 5.80646L5.75263 6.92581C5.71326 6.96518 5.70804 7.02667 5.73991 7.07145L6.8479 8.62817L6.56307 9.17193C6.38807 9.50601 6.2458 9.85647 6.13473 10.2256L5.9558 10.8203L4.09428 11.1343C4.03841 11.1437 4 11.1891 4 11.246V12.8291C4 12.886 4.03841 12.9314 4.09692 12.9413L5.97904 13.2623L6.16169 13.8468C6.27402 14.2063 6.42204 14.5573 6.60283 14.8931L6.89917 15.4434L5.79627 16.9774C5.76328 17.0237 5.76816 17.0825 5.80904 17.123L6.92957 18.2435C6.95366 18.2676 6.978 18.2777 7.00833 18.2777C7.0319 18.2777 7.04932 18.2721 7.07145 18.2562L8.62858 17.1479L9.17259 17.4334C9.49033 17.6001 9.83178 17.7401 10.1939 17.8531L10.7814 18.0363L11.0929 19.9056C11.1023 19.9615 11.1477 19.9999 11.2047 19.9999H12.7915C12.8484 19.9999 12.8938 19.9615 12.9035 19.9039L13.2207 18.0344L13.8079 17.8525C14.1757 17.7386 14.5279 17.5928 14.8621 17.4161L15.4083 17.1272L16.9554 18.2331C16.9717 18.2448 16.9925 18.2514 17.0179 18.2514C17.0482 18.2514 17.0726 18.2413 17.0966 18.2172L18.2172 17.0966C18.2566 17.0573 18.2618 16.9958 18.2301 16.9513L17.1293 15.4058L17.4143 14.8618C17.5987 14.5096 17.745 14.158 17.8508 13.8095L18.0311 13.2156L19.9056 12.9032C19.9615 12.8938 19.9999 12.8484 19.9999 12.7915Z" fill="#494C5F"/>
</svg>
