<svg width="50" height="26" viewBox="0 0 50 26" fill="none" xmlns="http://www.w3.org/2000/svg">
<g clip-path="url(#clip0_1_3276)">
<rect width="50" height="26" rx="13" fill="#D3D7FF"/>
<circle cx="13" cy="13" r="12" fill="white"/>
<path d="M12 4C12 3.44775 12.4478 3 13 3C13.5522 3 14 3.44775 14 4V5C14 5.55225 13.5522 6 13 6C12.4478 6 12 5.55225 12 5V4Z" fill="#FFBE18"/>
<path d="M18 13C18 15.7615 15.7615 18 13 18C10.2385 18 8 15.7615 8 13C8 10.2385 10.2385 8 13 8C15.7615 8 18 10.2385 18 13Z" fill="#FFBE18"/>
<path d="M13 20C12.4478 20 12 20.4478 12 21V22C12 22.5522 12.4478 23 13 23C13.5522 23 14 22.5522 14 22V21C14 20.4478 13.5522 20 13 20Z" fill="#FFBE18"/>
<path d="M5.92896 7.34314C5.53833 6.95251 5.53833 6.31946 5.92896 5.92883C6.31946 5.53833 6.95264 5.53833 7.34314 5.92883L8.05017 6.63599C8.4408 7.02649 8.4408 7.65967 8.05017 8.05017C7.65967 8.44067 7.02649 8.44067 6.63599 8.05017L5.92896 7.34314Z" fill="#FFBE18"/>
<path d="M17.9497 17.9497C17.5592 18.3402 17.5592 18.9734 17.9497 19.3639L18.6569 20.071C19.0474 20.4615 19.6805 20.4615 20.071 20.071C20.4615 19.6805 20.4615 19.0474 20.071 18.6569L19.3639 17.9497C18.9734 17.5592 18.3402 17.5592 17.9497 17.9497Z" fill="#FFBE18"/>
<path d="M4 14C3.44775 14 3 13.5522 3 13C3 12.4478 3.44775 12 4 12H5C5.55225 12 6 12.4478 6 13C6 13.5522 5.55225 14 5 14H4Z" fill="#FFBE18"/>
<path d="M20 13C20 13.5522 20.4478 14 21 14H22C22.5522 14 23 13.5522 23 13C23 12.4478 22.5522 12 22 12H21C20.4478 12 20 12.4478 20 13Z" fill="#FFBE18"/>
<path d="M6.74829 19.551C6.32532 19.906 5.69446 19.8508 5.33948 19.4279C4.9845 19.0048 5.03967 18.374 5.46277 18.0189L6.22876 17.3762C6.65186 17.0212 7.28259 17.0764 7.6377 17.4994C7.99268 17.9225 7.9375 18.5532 7.5144 18.9083L6.74829 19.551Z" fill="#FFBE18"/>
<path d="M18.3623 8.50037C18.7173 8.92346 19.348 8.97864 19.7711 8.62366L20.5371 7.98083C20.9602 7.62585 21.0154 6.99512 20.6604 6.57202C20.3054 6.14893 19.6747 6.09375 19.2516 6.44885L18.4855 7.09155C18.0625 7.44653 18.0073 8.07739 18.3623 8.50037Z" fill="#FFBE18"/>
</g>
<defs>
<clipPath id="clip0_1_3276">
<rect width="50" height="26" rx="13" fill="white"/>
</clipPath>
</defs>
</svg>
