<svg width="40" height="40" viewBox="0 0 40 40" fill="none" xmlns="http://www.w3.org/2000/svg">
<path fill-rule="evenodd" clip-rule="evenodd" d="M20 0C8.96001 0 0.0100098 8.954 0.0100098 20C0.0100098 30.141 7.55501 38.519 17.335 39.823V35.793C17.335 34.657 16.619 33.635 15.542 33.274C9.89901 31.377 5.86201 25.981 6.01101 19.663C6.19201 11.971 12.455 5.923 20.144 6.001C27.806 6.079 33.993 12.317 33.993 20.001C33.993 20.721 33.937 21.441 33.829 22.152C32.116 33.443 17.417 39.789 17.337 39.824C18.208 39.939 19.097 40 20 40C31.04 40 39.99 31.046 39.99 20C39.99 8.954 31.04 0 20 0Z" fill="#29B6F6"/>
</svg>
